<?xml version="1.0" standalone="no"?><!DOCTYPE svg PUBLIC "-//W3C//DTD SVG 1.1//EN" "http://www.w3.org/Graphics/SVG/1.1/DTD/svg11.dtd"><svg t="1527307066727" class="icon" style="" viewBox="0 0 1024 1024" version="1.1" xmlns="http://www.w3.org/2000/svg" p-id="2988" xmlns:xlink="http://www.w3.org/1999/xlink" width="200" height="200"><defs><style type="text/css"></style></defs><path d="M839.168 314.461091 162.583273 314.461091c-12.846545 0-23.272727-10.426182-23.272727-23.272727s10.426182-23.272727 23.272727-23.272727l676.584727 0c12.869818 0 23.272727 10.426182 23.272727 23.272727S852.014545 314.461091 839.168 314.461091z" p-id="2989"></path><path d="M720.849455 551.237818 162.583273 551.237818c-12.846545 0-23.272727-10.402909-23.272727-23.272727s10.426182-23.272727 23.272727-23.272727l558.266182 0c12.869818 0 23.272727 10.426182 23.272727 23.272727S733.696 551.237818 720.849455 551.237818z" p-id="2990"></path><path d="M720.849455 770.909091 162.583273 770.909091c-12.846545 0-23.272727-10.402909-23.272727-23.272727s10.426182-23.272727 23.272727-23.272727l558.266182 0c12.869818 0 23.272727 10.402909 23.272727 23.272727S733.696 770.909091 720.849455 770.909091z" p-id="2991"></path><path d="M854.318545 1016.762182 147.409455 1016.762182c-64.162909 0-116.363636-52.200727-116.363636-116.363636L31.045818 123.578182c0-64.162909 52.200727-116.363636 116.363636-116.363636l706.909091 0c64.162909 0 116.363636 52.200727 116.363636 116.363636l0 776.820364C970.682182 964.561455 918.481455 1016.762182 854.318545 1016.762182zM147.409455 53.76c-38.493091 0-69.818182 31.325091-69.818182 69.818182l0 776.820364c0 38.493091 31.325091 69.818182 69.818182 69.818182l706.909091 0c38.493091 0 69.818182-31.325091 69.818182-69.818182L924.136727 123.578182c0-38.493091-31.325091-69.818182-69.818182-69.818182L147.409455 53.76z" p-id="2992"></path></svg>